<svg xmlns="http://www.w3.org/2000/svg" viewBox="0 0 820 440" font-family="-apple-system, system-ui, sans-serif" font-size="13">
  <style>
    .lbl { fill: #222; }
    .note { fill: #555; font-style: italic; font-size: 12px; }
    .annotate { stroke: #777; stroke-width: 1; fill: none; }
  </style>

  <!-- Title -->
  <text x="410" y="28" text-anchor="middle" font-size="16" font-weight="600" class="lbl">Ball-on-beam with linkage (side view, beam level)</text>

  <!-- Base plate -->
  <rect x="60" y="370" width="700" height="18" fill="#bdbdbd" stroke="#000"/>
  <text x="410" y="408" text-anchor="middle" class="note">base plate</text>

  <!-- Pivot post -->
  <rect x="195" y="200" width="36" height="170" fill="#cfcfcf" stroke="#000"/>
  <text x="213" y="425" text-anchor="middle" class="lbl">pivot post</text>

  <!-- Pivot bearing -->
  <circle cx="213" cy="200" r="14" fill="#fff" stroke="#000" stroke-width="2"/>
  <circle cx="213" cy="200" r="4" fill="#000"/>
  <line x1="213" y1="200" x2="120" y2="160" class="annotate"/>
  <text x="116" y="156" text-anchor="end" class="lbl">pivot bearing</text>
  <text x="116" y="172" text-anchor="end" class="note">(carries all beam weight)</text>

  <!-- Beam -->
  <rect x="213" y="180" width="430" height="22" fill="#d9b382" stroke="#000"/>
  <!-- V-groove indicator on top -->
  <polyline points="220,180 643,180" fill="none" stroke="#000" stroke-dasharray="2,3"/>
  <text x="430" y="170" text-anchor="middle" class="lbl">BEAM (ball rolls in V-groove on top)</text>

  <!-- Ball -->
  <circle cx="370" cy="168" r="12" fill="#fff" stroke="#000" stroke-width="2"/>
  <text x="370" y="148" text-anchor="middle" class="lbl">ball</text>

  <!-- Servo body -->
  <rect x="555" y="280" width="90" height="90" fill="#333" stroke="#000"/>
  <text x="600" y="332" text-anchor="middle" fill="#fff" font-weight="600">SERVO</text>
  <text x="600" y="350" text-anchor="middle" fill="#fff" font-size="11">SG90</text>

  <!-- Servo shaft center -->
  <circle cx="600" cy="280" r="6" fill="#888" stroke="#000"/>
  <text x="660" y="284" class="lbl">servo shaft (rotation axis)</text>
  <line x1="606" y1="280" x2="655" y2="280" class="annotate"/>

  <!-- Servo horn (offset arm) -->
  <line x1="600" y1="280" x2="600" y2="240" stroke="#000" stroke-width="5"/>
  <circle cx="600" cy="240" r="5" fill="#d33"/>
  <text x="660" y="244" class="lbl">horn attach point</text>
  <text x="660" y="258" class="note">(offset from shaft)</text>

  <!-- Push-rod -->
  <line x1="600" y1="240" x2="600" y2="202" stroke="#222" stroke-width="3"/>
  <text x="660" y="220" class="lbl">push-rod (rigid wire)</text>
  <line x1="600" y1="220" x2="660" y2="216" class="annotate"/>

  <!-- Beam attach point -->
  <circle cx="600" cy="202" r="5" fill="#d33"/>

  <!-- Side caption explaining motion -->
  <text x="60" y="60" class="lbl" font-weight="600">How it works:</text>
  <text x="60" y="80" class="lbl">1. Servo rotates its horn a few degrees.</text>
  <text x="60" y="98" class="lbl">2. Horn's attach point swings up or down.</text>
  <text x="60" y="116" class="lbl">3. Rigid rod transmits that motion to the beam end.</text>
  <text x="60" y="134" class="lbl">4. Beam pivots around the bearing.</text>
</svg>
